Coordinates
version=1
nRows=22
nColumns=24
inDegrees=yes

Units are S.I. units (second, meters, Newtons, ...)
Angles are in degrees.

endheader
time	pelvis_tilt	pelvis_list	pelvis_rotation	pelvis_tx	pelvis_ty	pelvis_tz	hip_flexion_r	hip_adduction_r	hip_rotation_r	knee_angle_r	ankle_angle_r	subtalar_angle_r	mtp_angle_r	hip_flexion_l	hip_adduction_l	hip_rotation_l	knee_angle_l	ankle_angle_l	subtalar_angle_l	mtp_angle_l	lumbar_extension	lumbar_bending	lumbar_rotation
      3.73500000	    -10.70963529	     -8.75253246	      5.43758664	     -2.65714560	     -0.02339924	      0.46278115	     24.29527259	      9.31651286	     -5.94114070	    -15.95638628	     -6.41267627	     -4.97542918	      4.20396944	     15.67683648	     -9.65459898	      4.95105564	    -56.58665830	    -29.25148332	      0.18913925	     28.49550856	      5.92058934	      7.64702213	     -9.70091695
      3.74000000	    -10.60722348	     -8.83461667	      5.50884261	     -2.65100142	     -0.02272589	      0.46355136	     23.60767884	      9.52518936	     -5.96149030	    -15.64961963	     -6.12072134	     -4.98830800	      4.31333452	     16.55156381	     -9.60703554	      5.13965173	    -57.82452429	    -29.00149272	     -2.17694754	     27.51719705	      5.79406625	      7.67088353	     -9.59288641
      3.74500000	    -10.45347261	     -8.81026453	      5.46322419	     -2.64488721	     -0.02192073	      0.46446285	     22.85017956	      9.68377227	     -5.79099647	    -15.36292511	     -5.79352088	     -4.92565199	      4.36209789	     17.29823622	     -9.48320566	      5.20004179	    -58.94639807	    -28.55802853	     -4.20901779	     26.40843281	      5.57677533	      7.60075415	     -9.31221994
      3.75000000	    -10.29951504	     -8.79999930	      5.39337751	     -2.63882228	     -0.02109282	      0.46539934	     22.08970328	      9.86331610	     -5.63384202	    -15.06070373	     -5.52637464	     -4.86376384	      4.35622096	     18.03678493	     -9.38584467	      5.25896070	    -59.96983179	    -28.01638921	     -5.96828514	     25.51210368	      5.35406364	      7.54965977	     -8.96154045
      3.75500000	    -10.16299516	     -8.64756363	      5.31307786	     -2.63274778	     -0.02017755	      0.46634669	     21.31378457	      9.89999185	     -5.35595837	    -14.74385996	     -5.22071249	     -4.81209159	      4.34689388	     18.73891581	     -9.12613437	      5.27899327	    -60.85408026	    -27.47738068	     -7.56279377	     24.53374673	      5.14303516	      7.33791182	     -8.65536790
      3.76000000	    -10.04342701	     -8.47082591	      5.19077208	     -2.62671321	     -0.01926086	      0.46733005	     20.55336109	      9.91779702	     -5.06259031	    -14.42465198	     -4.93500936	     -4.74913085	      4.33870514	     19.43625618	     -8.85659292	      5.26224844	    -61.63415471	    -26.85890485	     -8.85937556	     23.76196624	      4.94137945	      7.10440109	     -8.29235999
      3.76500000	     -9.94704659	     -8.23748611	      5.04985113	     -2.62070277	     -0.01832731	      0.46833712	     19.80686317	      9.87644244	     -4.73016609	    -14.09762461	     -4.66045962	     -4.70210335	      4.32527095	     20.12880624	     -8.52928942	      5.22601100	    -62.29609822	    -26.21237170	     -9.91783591	     23.16261410	      4.75924914	      6.80612313	     -7.91696666
      3.77000000	     -9.87153069	     -7.97707309	      4.88538597	     -2.61473095	     -0.01739082	      0.46936077	     19.07972289	      9.80410612	     -4.38705208	    -13.76523653	     -4.41033244	     -4.64746845	      4.31384247	     20.82172668	     -8.17918078	      5.17154776	    -62.85008426	    -25.52498400	    -10.73926089	     22.74901067	      4.59331968	      6.47611055	     -7.49881376
      3.77500000	     -9.81609555	     -7.69490441	      4.69731116	     -2.60876333	     -0.01645794	      0.47035219	     18.35998625	      9.70278242	     -4.02073678	    -13.41032211	     -4.17136781	     -4.57843051	      4.30121980	     21.51170721	     -7.80867577	      5.09262327	    -63.30090845	    -24.80221435	    -11.35756658	     22.45752167	      4.45201916	      6.13719006	     -7.05607198
      3.78000000	     -9.79808966	     -7.36331693	      4.52646746	     -2.60284669	     -0.01555222	      0.47133026	     17.68835510	      9.53207771	     -3.67737048	    -13.06931503	     -3.92446812	     -4.52351741	      4.30638038	     22.22184286	     -7.37807851	      5.01855629	    -63.63247166	    -24.04141118	    -11.79977114	     22.40587023	      4.34980313	      5.73554821	     -6.70341714
      3.78500000	     -9.77853981	     -7.00408590	      4.25107081	     -2.59692552	     -0.01460952	      0.47239626	     17.00411042	      9.35296598	     -3.24713842	    -12.71756337	     -3.69910249	     -4.39702371	      4.30998053	     22.87909811	     -6.96364608	      4.82822083	    -63.85594145	    -23.21383804	    -12.04607851	     22.32960052	      4.23632353	      5.31843918	     -6.17454113
      3.79000000	     -9.77960254	     -6.61363805	      3.98949706	     -2.59107006	     -0.01369791	      0.47341878	     16.35218628	      9.12227646	     -2.82361957	    -12.37808320	     -3.46442489	     -4.27114321	      4.31789135	     23.54347145	     -6.50912927	      4.64363883	    -63.97988937	    -22.30694564	    -12.11584656	     22.35521568	      4.14397429	      4.87007336	     -5.72669574
      3.79500000	     -9.81077414	     -6.18745802	      3.71867687	     -2.58521400	     -0.01279885	      0.47444488	     15.72880369	      8.84235396	     -2.43236359	    -12.02464729	     -3.22980905	     -4.11541263	      4.35081378	     24.21132359	     -6.02001381	      4.44792773	    -63.98905718	    -21.40813765	    -12.05348937	     22.48611049	      4.09052010	      4.38138680	     -5.25210432
      3.80000000	     -9.85929081	     -5.73021670	      3.44103259	     -2.57943368	     -0.01192215	      0.47543993	     15.14397172	      8.51624615	     -2.06440417	    -11.69400841	     -3.00860596	     -3.94564347	      4.39902896	     24.87438091	     -5.49635856	      4.24130100	    -63.89198160	    -20.49584377	    -11.92370540	     22.67291961	      4.04861985	      3.86565457	     -4.80340958
      3.80500000	     -9.91056062	     -5.28027767	      3.13440173	     -2.57364514	     -0.01108823	      0.47644711	     14.55759244	      8.19395318	     -1.67819683	    -11.34565419	     -2.77086187	     -3.73145441	      4.46887299	     25.52087780	     -5.00437408	      4.00201791	    -63.70877822	    -19.57026635	    -11.67865460	     22.89408357	      4.02337203	      3.36419610	     -4.32078810
      3.81000000	     -9.96003970	     -4.84931534	      2.80403062	     -2.56785283	     -0.01030934	      0.47745862	     13.96378793	      7.88697910	     -1.27386698	    -10.97487819	     -2.52559993	     -3.47642234	      4.55186203	     26.15094617	     -4.55018640	      3.75131938	    -63.45161672	    -18.64348376	    -11.33869485	     23.12035558	      4.00482091	      2.89171058	     -3.81968530
      3.81500000	    -10.02415892	     -4.39835204	      2.49389155	     -2.56211094	     -0.00957745	      0.47841229	     13.41229209	      7.54279727	     -0.93863029	    -10.63413183	     -2.30924317	     -3.25878674	      4.63399709	     26.77920490	     -4.06385805	      3.51199312	    -63.09565114	    -17.79533561	    -11.07385868	     23.32989570	      4.00459667	      2.39480258	     -3.36773193
      3.82000000	    -10.06669597	     -3.98766886	      2.14686812	     -2.55634975	     -0.00891749	      0.47933979	     12.82716388	      7.23853346	     -0.54752234	    -10.26412686	     -2.07362703	     -3.00422822	      4.72995928	     27.37330776	     -3.64476747	      3.25507433	    -62.68408192	    -16.96590088	    -10.74678210	     23.53513224	      3.99622397	      1.96349434	     -2.88035817
      3.82500000	    -10.11900345	     -3.57840196	      1.80354449	     -2.55058087	     -0.00831844	      0.48025105	     12.26589423	      6.92849620	     -0.20737067	     -9.90419976	     -1.87288073	     -2.78612448	      4.81627629	     27.96182318	     -3.23171910	      3.00116629	    -62.18803423	    -16.26303557	    -10.51631381	     23.71715145	      4.01032661	      1.53098641	     -2.39358531
      3.83000000	    -10.16250578	     -3.19129673	      1.46140695	     -2.54480997	     -0.00780827	      0.48110757	     11.70597294	      6.63428276	      0.12763020	     -9.55427308	     -1.67586414	     -2.61061948	      4.88489471	     28.52751201	     -2.84705741	      2.75250433	    -61.62417027	    -15.61258731	    -10.36426371	     23.87407725	      4.02542644	      1.12956998	     -1.94349122
      3.83500000	    -10.18612629	     -2.84288364	      1.09667383	     -2.53900269	     -0.00737247	      0.48195421	     11.11991651	      6.37931219	      0.49669368	     -9.19040436	     -1.48696809	     -2.44774325	      4.93746778	     29.06108798	     -2.52326400	      2.50252692	    -61.00835891	    -15.04080739	    -10.24894102	     24.00316635	      4.03471134	      0.77894093	     -1.46744822
      3.84000000	    -10.18299190	     -2.52352648	      0.71184895	     -2.53318053	     -0.00700400	      0.48277045	     10.50873517	      6.15177903	      0.89472245	     -8.82837371	     -1.31028927	     -2.32347576	      4.96207518	     29.55398130	     -2.25401693	      2.23138717	    -60.33795938	    -14.52106094	    -10.18223559	     24.09523565	      4.02510185	      0.47091245	     -0.96393789
